<svg xmlns="http://www.w3.org/2000/svg" viewBox="0 0 956.13 181.64"><defs><style>.cls-1{fill:#231f20;}</style></defs><g id="Layer_2" data-name="Layer 2"><g id="Layer_1-2" data-name="Layer 1"><path class="cls-1" d="M233.55,15.11,211.72,66.56,197.79,99.33l-25.68,60.52c-6.4,15.19-15.86,21.79-24.08,21.79H125.32c-10.17,0-14.94-8.17-10.66-18.26l22.89-54c.74-1.75-.09-3.17-1.86-3.17a5.59,5.59,0,0,0-4.61,3.18l-21.42,50.49c-6.41,15.18-15.87,21.79-24.08,21.79H62.86c-10.16,0-14.94-8.18-10.66-18.27l22.89-54c.75-1.76-.08-3.18-1.85-3.18a5.45,5.45,0,0,0-4.55,3.18l-24.14,57c-3.58,8.47-13.41,15.33-21.94,15.33H9.31c-8.53,0-12.54-6.87-6.22-21.75L64.28,15.67C67.86,7.21,77.68.35,86.21.35h13.3c8.53,0,12.53,6.86,8.95,15.32L74.11,96.59c-.74,1.75.09,3.18,1.86,3.18a5.45,5.45,0,0,0,4.54-3.18L113.66,18.5c4.24-10,15.88-18.15,26-18.15h22.83c8.22,0,12.07,6.61,8.62,14.76L149.26,66.56l-12.77,30c-.75,1.76.16,3.17,1.93,3.17A5.46,5.46,0,0,0,143,96.59L176.11,18.5c4.25-10,15.88-18.15,26-18.15h22.84C233.14.35,237,7,233.55,15.11Z"/><path class="cls-1" d="M333.94,78.6l11.79-28-15,35.29c-4.7,11.06-17.56,20-28.71,20H275.61c-3.74,0-8.06,3-9.63,6.73l-27,63.7c-1.34,3.16-4.92,5.48-7.94,5.15h0c-3.3.32-4.91-2-3.57-5.16l27-63.69c1.57-3.71-.18-6.73-3.93-6.73H224.08c-11.16,0-16.4-9-11.7-20l15-35.29-12,28,27.36-63.84C246.21,6.61,255.67,0,263.88,0h26.25c8.22,0,12.07,6.61,8.62,14.76L278.94,61l4.4-10.36L263.9,96.43c-.74,1.76.09,3.18,1.86,3.18a5.43,5.43,0,0,0,4.54-3.18l19.44-45.81L285.36,61l19.41-46.22C308.22,6.61,317.69,0,325.9,0h26.25c8.21,0,12.07,6.61,8.61,14.76Z"/><path class="cls-1" d="M447.51,62.66,469.88,9.93c.74-1.75-.09-3.17-1.86-3.17a5.44,5.44,0,0,0-4.54,3.17L440.81,63.36c-4.78,11.27.55,20.41,11.91,20.41h13.43c15.68,0,23,12.61,16.44,28.17l-27.11,63.91-.11.27c-1.28,3-4.76,5.44-7.79,5.44H394c-8.22,0-12.07-6.6-8.62-14.75L409,111.22c3.45-8.15,12.91-14.76,21.13-14.76h26.25c8.21,0,12.07,6.61,8.61,14.76l-25.73,60.66c-.75,1.75.08,3.17,1.85,3.17a5.43,5.43,0,0,0,4.55-3.17l26.89-63.38c4.3-10.16-.5-18.39-10.73-18.39H446.64c-15.85,0-23.28-12.74-16.62-28.46L453.76,5.7c1.28-3,4.76-5.44,7.79-5.44H515.1c8.21,0,12.06,6.6,8.61,14.75L503.5,62.66c-3.46,8.15-12.92,14.76-21.13,14.76H456.11C447.9,77.42,444,70.81,447.51,62.66Z"/><path class="cls-1" d="M578.16,91.48l-27.35,63.85c-3.46,8.15-12.92,14.76-21.14,14.76H503.42c-8.21,0-12.07-6.61-8.61-14.76l19.81-46.22L537.3,55.62,556.73,9.81c.74-1.75-.08-3.18-1.85-3.18a5.46,5.46,0,0,0-4.55,3.18L513.61,96.38l-5.39,12.71-28.33,66.78c-1.34,3.15-5,5.71-8.18,5.71s-4.67-2.56-3.33-5.71L540.61,5.58A9.08,9.08,0,0,1,548.2.28h48.35c11.17,0,16.4,9,11.7,20.06l-15,35.28ZM602,20.08c3.19-7.5-.36-13.59-7.92-13.59h-1.3c-7.56,0-16.27,6.09-19.45,13.59l-9.44,22.24c-3.18,7.5.37,13.59,7.93,13.59h1.3c7.56,0,16.26-6.09,19.45-13.59Z"/><path class="cls-1" d="M662.36.37h84.83C756.62.38,761,8,757.07,17.31L697.39,158c-5.51,13-20.59,23.51-33.67,23.51H590c-13.09,0-19.24-10.53-13.73-23.52L626.58,39.46c4-9.43,14.95-17.07,24.45-17.07H665.7a5.45,5.45,0,0,0,4.54-3.18c.75-1.76-.08-3.18-1.85-3.18H651.9c-12,0-25.89,9.68-30.95,21.61L562.34,175.8c-1.34,3.16-5,5.71-8.17,5.71s-4.67-2.55-3.33-5.71l58.8-138.61C618.26,16.85,641.86.37,662.36.37Zm-2,42c3.19-7.5-.37-13.58-7.92-13.58h-1.3c-7.56,0-16.27,6.08-19.45,13.58L622.3,64.63c-3.18,7.5.37,13.58,7.93,13.58h1.3c7.56,0,16.26-6.08,19.45-13.58Z"/><path class="cls-1" d="M763.74,66.51l24-56.53c.74-1.75-.09-3.17-1.86-3.17A5.43,5.43,0,0,0,781.32,10l-68.7,161.94c-.74,1.75.08,3.18,1.85,3.18a5.43,5.43,0,0,0,4.55-3.18l27.83-65.6c3.46-8.15,12.92-14.76,21.13-14.76h26.25c8.22,0,12.07,6.61,8.61,14.76l-25.67,60.53C773.71,175,764.25,181.6,756,181.6H702.5c-3,0-4.46-2.44-3.18-5.44l.11-.27L771.49,6l.11-.27A9.32,9.32,0,0,1,779.39.31h53.55c8.21,0,12.07,6.61,8.61,14.76L819.73,66.52c-3.46,8.15-12.92,14.75-21.13,14.75H772.35C764.13,81.27,760.28,74.67,763.74,66.51Z"/><path class="cls-1" d="M860,106.66l6.78-16c.74-1.75-.09-3.17-1.85-3.17a5.44,5.44,0,0,0-4.55,3.17l-34.41,81.13c-.75,1.76.08,3.18,1.85,3.18a5.45,5.45,0,0,0,4.55-3.18l12.42-29.28c3.45-8.14,12.91-14.75,21.13-14.75h26.25c8.21,0,12.07,6.61,8.61,14.75l-10.26,24.21c-3.46,8.15-12.92,14.75-21.14,14.75H806.81l0,0h-13.3c-8.53,0-12.54-6.86-9-15.33l63.9-150.63C852,7.1,861.86.24,870.39.24H892.3c.14,0,.27,0,.41,0h53.54c8.22,0,12.07,6.61,8.62,14.76l-6.42,15.13c-3.46,8.15-12.92,14.76-21.13,14.76H901.07c-8.22,0-12.07-6.61-8.62-14.76L901,9.88c.74-1.75-.09-3.17-1.86-3.17a5.44,5.44,0,0,0-4.54,3.17L865.73,78c-.74,1.76.09,3.18,1.86,3.18A5.43,5.43,0,0,0,872.13,78l5-11.91c3.46-8.15,12.92-14.75,21.13-14.75h26.25c8.22,0,12.07,6.6,8.62,14.75L916,106.66c-3.45,8.15-12.92,14.76-21.13,14.76H868.58C860.37,121.42,856.51,114.81,860,106.66Z"/></g></g></svg>