<svg xmlns="http://www.w3.org/2000/svg" viewBox="0 0 800.5 200.3"><defs><style>.cls-1{fill:#231f20;}</style></defs><g id="Layer_2" data-name="Layer 2"><g id="Layer_1-2" data-name="Layer 1"><path class="cls-1" d="M146.39,49c-11.72,0-16,2.13-21.1,13L73.09,169.83c-9.38,19.39-12.57,30.47-26.64,30.47-12.57,0-16-8.53-22.16-8.53l-8.52-29.83H20c8.74,29.62,17,34.1,25.78,34.1C55.4,196,59,189.22,67.33,172l6.82-14.28h-1.7L21.73,61.79C16,50.93,11.72,49,0,49V46.88H39.21V49C22.8,49,22,50.93,27.7,61.79l48.58,91.84L120.6,62c5.12-10.87,4.27-13-12.14-13V46.88h37.93Z"/><path class="cls-1" d="M136.79,100.15c0-36.44,28.34-57.54,59.88-57.54s59.87,20.89,59.87,57.54-28.13,57.53-59.87,57.53C165.13,157.68,136.79,136.59,136.79,100.15Zm113.79,0c0-31.11-21.53-53.27-53.91-53.27-32.18,0-53.91,22.37-53.91,53.27,0,31.11,21.52,53.27,53.91,53.27S250.58,131.26,250.58,100.15Z"/><path class="cls-1" d="M368.4,136.59c0,12.14,2.13,14.7,13.85,14.7v2.13l-16.62,2.13h-2.55V139.78c-12.58,8.52-27.92,17.9-49.87,17.9-20.88,0-38.56-10-38.56-38.35V63.71c0-12.15-2.14-14.7-13.85-14.7V46.88l16.62-2.13H280v74.58c0,23.65,13.64,34.09,33.24,34.09s36.23-8.31,49.87-17.9V63.71c0-12.15-2.14-14.7-13.85-14.7V46.88l16.61-2.13h2.56Z"/><path class="cls-1" d="M384.8,31.32c5.54-8.52,7.25-11.72,7.25-14.91,0-6.82-7.67-4.48-7.67-10.87,0-3.41,2.55-5.54,6.39-5.54,4.9,0,7.24,3.41,7.24,8.73,0,9.38-4.05,16.63-10,25.36Z"/><path class="cls-1" d="M468.11,53.06c-1.49,2.34-3.2,4.47-5.75,4.47-4.69,0-5.54-7.67-10.44-7.67-4.26,0-11.3,5.75-21.95,16.83v69.9c0,12.14,3.2,14.7,20.88,14.7v2.13H410.79v-2.13c11.72,0,13.85-2.56,13.85-14.7V63.71c0-12.15-2.13-14.7-13.85-14.7V46.88l16.62-2.13H430V60.3c10.65-10.65,16.83-17.69,22.8-17.69,6.39,0,7,7.46,11.08,7.46a5.16,5.16,0,0,0,2.77-.85Z"/><path class="cls-1" d="M582.11,114c-11.3,32.6-33.46,43.68-56.9,43.68-32.81,0-56-21.52-56-56,0-32.18,22.38-59,56.47-59,25.36,0,44.75,12.36,49,45.82H476.42a64.79,64.79,0,0,0-1.28,13.21c0,29,19,50.71,50.07,50.71,28.34,0,44.32-15.34,52.85-39.84ZM477.27,84.17h92.05c-4.26-25.79-21.73-37.29-43.68-37.29C503.48,46.88,483.88,60.51,477.27,84.17Z"/><path class="cls-1" d="M653.47,63.71c0-12.15-2.13-14.7-13.85-14.7V46.88l16.62-2.13h2.56v91.84c0,12.14,2.13,14.7,13.85,14.7v2.13h-33v-2.13c11.72,0,13.85-2.56,13.85-14.7Zm-4.26-49.43c0-3.2,2.77-5.76,6.39-5.76s6.4,2.56,6.4,5.76S659.23,20,655.6,20,649.21,17.47,649.21,14.28Z"/><path class="cls-1" d="M786.64,136.59c0,12.14,2.14,14.7,13.86,14.7v2.13h-33v-2.13c11.72,0,13.85-2.56,13.85-14.7V81c0-23.65-13.64-34.09-33.24-34.09-17.48,0-36.23,8.31-52,21.31v68.4c0,12.14,2.13,14.7,13.85,14.7v2.13h-33v-2.13c11.72,0,13.85-2.56,13.85-14.7V63.71c0-12.15-2.13-14.7-13.85-14.7V46.88l16.62-2.13h2.56V63.92c14.7-11.93,32.17-21.31,52-21.31,20.88,0,38.56,10,38.56,38.36Z"/></g></g></svg>